<svg xmlns:inkscape="http://www.inkscape.org/namespaces/inkscape" xmlns:rdf="http://www.w3.org/1999/02/22-rdf-syntax-ns#" xmlns="http://www.w3.org/2000/svg" xmlns:cc="http://creativecommons.org/ns#" xmlns:dc="http://purl.org/dc/elements/1.1/" xmlns:sodipodi="http://sodipodi.sourceforge.net/DTD/sodipodi-0.dtd" xmlns:svg="http://www.w3.org/2000/svg" xmlns:ns1="http://sozi.baierouge.fr" xmlns:xlink="http://www.w3.org/1999/xlink" id="svg2" sodipodi:docname="checkmarks_ocal081028_f2.svg" viewBox="0 0 190 190" sodipodi:version="0.32" version="1.0" inkscape:output_extension="org.inkscape.output.svg.inkscape" inkscape:version="0.46">
  <sodipodi:namedview id="base" bordercolor="#666666" inkscape:pageshadow="2" guidetolerance="10" pagecolor="#ffffff" gridtolerance="10000" inkscape:window-height="963" inkscape:zoom="3.9" objecttolerance="10" showgrid="false" borderopacity="1.0" inkscape:current-layer="layer1" inkscape:cx="95" inkscape:cy="95" inkscape:window-y="48" inkscape:window-x="158" inkscape:window-width="1170" inkscape:pageopacity="0.0" inkscape:document-units="px"/>
  <g id="layer1" inkscape:label="Layer 1" inkscape:groupmode="layer" transform="translate(-420.77 -52.736)">
    <g id="g3358" transform="translate(13.676 4.8718)">
      <path id="path3168" sodipodi:rx="128.52736" sodipodi:ry="128.52736" style="stroke-linejoin:round;stroke:#000000;stroke-linecap:round;stroke-width:13.1;fill:none" sodipodi:type="arc" d="m377.77 581.57a128.53 128.53 0 1 1 -257.05 0 128.53 128.53 0 1 1 257.05 0z" transform="matrix(.59365 0 0 .59365 348.55 -196.85)" sodipodi:cy="581.5686" sodipodi:cx="249.24367"/>
      <path id="path3172" sodipodi:nodetypes="ccsccscccsccscc" style="fill:#999999" d="m464.49 134.48c3.64 0 7.58-0.89 9.45 5.08 3.73 11.2 6.39 16.8 7.98 16.8 1.21 0 3.07-3.32 4.38-5.18 25.62-44.68 40.95-62.853 63.25-88.798 5.79-6.719 13.02-9.619 25.62-9.619 2.99 0 6.95-0.18 7.98 0.38 4.52 2.081 4.16 6.905-0.7 13.078-34.83 43.599-60.79 78.899-93.08 127.05-2.14 3.36-8.32 5.04-14.94 5.04-6.72 0-10.69-0.28-11.9-0.84-3.17-1.4-6.91-8.54-11.2-21.41-4.85-14.28-7.28-23.24-7.28-26.88 0-3.92 3.27-7.7 9.8-11.34 4.01-2.24 7.56-3.36 10.64-3.36"/>
      <path id="path3338" style="fill:#000000" d="m466.06 137.58c3.32 0 5.83 2.73 7.53 8.17 3.4 10.21 5.83 15.32 7.27 15.32 1.11 0 2.26-0.85 3.45-2.55 23.91-38.3 46.03-69.268 66.37-92.923 5.27-6.126 13.66-9.19 25.14-9.19 2.73 0 4.56 0.256 5.49 0.766 0.94 0.511 1.41 1.149 1.41 1.915 0 1.191-1.41 3.531-4.22 7.02-32.84 39.482-63.3 81.172-91.38 125.08-1.96 3.06-5.96 4.59-12 4.59-6.13 0-9.74-0.25-10.85-0.76-2.89-1.28-6.3-7.79-10.21-19.53-4.43-13.02-6.64-21.19-6.64-24.51 0-3.57 2.98-7.02 8.94-10.33 3.66-2.05 6.89-3.07 9.7-3.07"/>
    </g>
  </g>
  <metadata>
    <rdf:RDF>
      <cc:Work>
        <dc:format>image/svg+xml</dc:format>
        <dc:type rdf:resource="http://purl.org/dc/dcmitype/StillImage"/>
        <cc:license rdf:resource="http://creativecommons.org/licenses/publicdomain/"/>
        <dc:publisher>
          <cc:Agent rdf:about="http://openclipart.org/">
            <dc:title>Openclipart</dc:title>
          </cc:Agent>
        </dc:publisher>
        <dc:title>checkmark_on_circle</dc:title>
        <dc:date>2008-10-26T10:10:59</dc:date>
        <dc:description>Checkmarks/ticks on circles
\nLeft version comes with an intersected circle (as a path). Right version has a full circle. There the tick is a overlay (with a "shadow"; made gray only for visibility)</dc:description>
        <dc:source>https://openclipart.org/detail/19804/checkmark_on_circle-by-andrea_s-19804</dc:source>
        <dc:creator>
          <cc:Agent>
            <dc:title>andrea_S</dc:title>
          </cc:Agent>
        </dc:creator>
        <dc:subject>
          <rdf:Bag>
            <rdf:li>check</rdf:li>
            <rdf:li>checkmark</rdf:li>
            <rdf:li>circle</rdf:li>
            <rdf:li>round</rdf:li>
            <rdf:li>sign</rdf:li>
            <rdf:li>symbol</rdf:li>
            <rdf:li>tick</rdf:li>
          </rdf:Bag>
        </dc:subject>
      </cc:Work>
      <cc:License rdf:about="http://creativecommons.org/licenses/publicdomain/">
        <cc:permits rdf:resource="http://creativecommons.org/ns#Reproduction"/>
        <cc:permits rdf:resource="http://creativecommons.org/ns#Distribution"/>
        <cc:permits rdf:resource="http://creativecommons.org/ns#DerivativeWorks"/>
      </cc:License>
    </rdf:RDF>
  </metadata>
</svg>